<mxfile host="65bd71144e">
    <diagram id="iSXjDYUuzUm2LUg0lwVW" name="Page-1">
        <mxGraphModel dx="1029" dy="886" grid="1" gridSize="10" guides="1" tooltips="1" connect="1" arrows="1" fold="1" page="1" pageScale="1" pageWidth="850" pageHeight="1100" math="0" shadow="0">
            <root>
                <mxCell id="0"/>
                <mxCell id="1" parent="0"/>
                <mxCell id="39" value="" style="edgeStyle=none;html=1;" edge="1" parent="1" source="37" target="38">
                    <mxGeometry relative="1" as="geometry"/>
                </mxCell>
                <mxCell id="37" value="App" style="whiteSpace=wrap;html=1;aspect=fixed;" vertex="1" parent="1">
                    <mxGeometry x="345" y="40" width="80" height="80" as="geometry"/>
                </mxCell>
                <mxCell id="51" value="" style="edgeStyle=none;html=1;entryX=1;entryY=0;entryDx=0;entryDy=0;" edge="1" parent="1" source="38" target="44">
                    <mxGeometry relative="1" as="geometry">
                        <mxPoint x="385" y="340" as="targetPoint"/>
                    </mxGeometry>
                </mxCell>
                <mxCell id="53" value="" style="edgeStyle=none;html=1;entryX=1;entryY=0;entryDx=0;entryDy=0;" edge="1" parent="1" source="38" target="45">
                    <mxGeometry relative="1" as="geometry">
                        <mxPoint x="385" y="519.9999999999998" as="targetPoint"/>
                    </mxGeometry>
                </mxCell>
                <mxCell id="57" value="" style="edgeStyle=none;html=1;entryX=0;entryY=0;entryDx=0;entryDy=0;" edge="1" parent="1" source="38" target="46">
                    <mxGeometry relative="1" as="geometry">
                        <mxPoint x="380.46875" y="499.9999999999998" as="targetPoint"/>
                    </mxGeometry>
                </mxCell>
                <mxCell id="59" value="" style="edgeStyle=none;html=1;entryX=0;entryY=0;entryDx=0;entryDy=0;" edge="1" parent="1" source="38" target="47">
                    <mxGeometry relative="1" as="geometry">
                        <mxPoint x="385" y="340" as="targetPoint"/>
                    </mxGeometry>
                </mxCell>
                <mxCell id="38" value="OverView&lt;br&gt;Component" style="whiteSpace=wrap;html=1;aspect=fixed;" vertex="1" parent="1">
                    <mxGeometry x="345" y="170" width="80" height="80" as="geometry"/>
                </mxCell>
                <mxCell id="40" value="productId" style="text;html=1;align=center;verticalAlign=middle;resizable=0;points=[];autosize=1;strokeColor=none;" vertex="1" parent="1">
                    <mxGeometry x="385" y="130" width="70" height="20" as="geometry"/>
                </mxCell>
                <mxCell id="42" value="&amp;nbsp;1. Product Information : GET /products/:product_id" style="text;html=1;align=center;verticalAlign=middle;resizable=0;points=[];autosize=1;strokeColor=none;" vertex="1" parent="1">
                    <mxGeometry x="420" y="170" width="290" height="20" as="geometry"/>
                </mxCell>
                <mxCell id="43" value="2. Product Styles : GET /products/:product_id/styles" style="text;html=1;align=center;verticalAlign=middle;resizable=0;points=[];autosize=1;strokeColor=none;" vertex="1" parent="1">
                    <mxGeometry x="425" y="190" width="290" height="20" as="geometry"/>
                </mxCell>
                <mxCell id="44" value="Image&lt;br&gt;Gallery" style="whiteSpace=wrap;html=1;aspect=fixed;" vertex="1" parent="1">
                    <mxGeometry x="40" y="340" width="80" height="80" as="geometry"/>
                </mxCell>
                <mxCell id="45" value="Product&lt;br&gt;Information" style="whiteSpace=wrap;html=1;aspect=fixed;" vertex="1" parent="1">
                    <mxGeometry x="250" y="340" width="80" height="80" as="geometry"/>
                </mxCell>
                <mxCell id="46" value="Style&lt;br&gt;Selector" style="whiteSpace=wrap;html=1;aspect=fixed;" vertex="1" parent="1">
                    <mxGeometry x="425" y="520" width="80" height="80" as="geometry"/>
                </mxCell>
                <mxCell id="47" value="Add&lt;br&gt;To&lt;br&gt;Cart" style="whiteSpace=wrap;html=1;aspect=fixed;" vertex="1" parent="1">
                    <mxGeometry x="670" y="340" width="80" height="80" as="geometry"/>
                </mxCell>
                <mxCell id="68" value="user selection would&amp;nbsp;&lt;br&gt;update the Overview Component state" style="rounded=1;whiteSpace=wrap;html=1;" vertex="1" parent="1">
                    <mxGeometry x="470" y="410" width="120" height="60" as="geometry"/>
                </mxCell>
                <mxCell id="69" value="" style="endArrow=classic;html=1;fillColor=#000033;strokeColor=#000000;" edge="1" parent="1">
                    <mxGeometry width="50" height="50" relative="1" as="geometry">
                        <mxPoint x="490" y="520" as="sourcePoint"/>
                        <mxPoint x="540" y="470" as="targetPoint"/>
                    </mxGeometry>
                </mxCell>
                <mxCell id="70" value="" style="endArrow=classic;html=1;exitX=0.5;exitY=0;exitDx=0;exitDy=0;entryX=1;entryY=1;entryDx=0;entryDy=0;strokeColor=#000000;" edge="1" parent="1" source="68" target="38">
                    <mxGeometry width="50" height="50" relative="1" as="geometry">
                        <mxPoint x="460" y="390" as="sourcePoint"/>
                        <mxPoint x="510" y="340" as="targetPoint"/>
                    </mxGeometry>
                </mxCell>
                <mxCell id="73" value="2" style="ellipse;whiteSpace=wrap;html=1;aspect=fixed;" vertex="1" parent="1">
                    <mxGeometry x="190" y="240" width="40" height="40" as="geometry"/>
                </mxCell>
                <mxCell id="74" value="1" style="ellipse;whiteSpace=wrap;html=1;aspect=fixed;" vertex="1" parent="1">
                    <mxGeometry x="300" y="270" width="40" height="40" as="geometry"/>
                </mxCell>
                <mxCell id="75" value="2" style="ellipse;whiteSpace=wrap;html=1;aspect=fixed;" vertex="1" parent="1">
                    <mxGeometry x="365" y="400" width="40" height="40" as="geometry"/>
                </mxCell>
                <mxCell id="76" value="2" style="ellipse;whiteSpace=wrap;html=1;aspect=fixed;" vertex="1" parent="1">
                    <mxGeometry x="560" y="250" width="40" height="40" as="geometry"/>
                </mxCell>
                <mxCell id="78" value="update 2" style="ellipse;whiteSpace=wrap;html=1;aspect=fixed;" vertex="1" parent="1">
                    <mxGeometry x="490" y="320" width="40" height="40" as="geometry"/>
                </mxCell>
            </root>
        </mxGraphModel>
    </diagram>
</mxfile>